<svg xmlns="http://www.w3.org/2000/svg" width="512" height="512" viewBox="0 0 512 512"><defs><radialGradient id="halo" cx="0.5" cy="0.5" r="0.5">
      <stop offset="0" stop-color="#4fe3ff" stop-opacity="0.25"/><stop offset="0.55" stop-color="#4fe3ff" stop-opacity="0.10"/>
      <stop offset="1" stop-color="#4fe3ff" stop-opacity="0"/></radialGradient></defs><circle cx="256" cy="250" r="240" fill="url(#halo)"/><path d="M 118,432 L 118,146 A 18,18 0 0 1 136,128 L 326,128 A 18,18 0 0 1 344,146 L 344,432 Z" fill="none" stroke="#4fe3ff" stroke-width="34" stroke-opacity="0.08" stroke-linecap="round" stroke-linejoin="round"/><path d="M 118,432 L 118,146 A 18,18 0 0 1 136,128 L 326,128 A 18,18 0 0 1 344,146 L 344,432 Z" fill="none" stroke="#4fe3ff" stroke-width="24" stroke-opacity="0.16" stroke-linecap="round" stroke-linejoin="round"/><path d="M 118,432 L 118,146 A 18,18 0 0 1 136,128 L 326,128 A 18,18 0 0 1 344,146 L 344,432 Z" fill="none" stroke="#4fe3ff" stroke-width="17" stroke-opacity="0.35" stroke-linecap="round" stroke-linejoin="round"/><path d="M 118,432 L 118,146 A 18,18 0 0 1 136,128 L 326,128 A 18,18 0 0 1 344,146 L 344,432 Z" fill="none" stroke="#4fe3ff" stroke-width="12" stroke-linecap="round" stroke-linejoin="round"/><path d="M 118,432 L 118,146 A 18,18 0 0 1 136,128 L 326,128 A 18,18 0 0 1 344,146 L 344,432 Z" fill="none" stroke="#eafdff" stroke-width="6" stroke-linecap="round" stroke-linejoin="round" opacity="0.9"/><path d="M 176,128 L 176,94 h 66 v 34" fill="none" stroke="#4fe3ff" stroke-width="30" stroke-opacity="0.08" stroke-linecap="round" stroke-linejoin="round"/><path d="M 176,128 L 176,94 h 66 v 34" fill="none" stroke="#4fe3ff" stroke-width="20" stroke-opacity="0.16" stroke-linecap="round" stroke-linejoin="round"/><path d="M 176,128 L 176,94 h 66 v 34" fill="none" stroke="#4fe3ff" stroke-width="13" stroke-opacity="0.35" stroke-linecap="round" stroke-linejoin="round"/><path d="M 176,128 L 176,94 h 66 v 34" fill="none" stroke="#4fe3ff" stroke-width="8" stroke-linecap="round" stroke-linejoin="round"/><path d="M 176,128 L 176,94 h 66 v 34" fill="none" stroke="#eafdff" stroke-width="3" stroke-linecap="round" stroke-linejoin="round" opacity="0.9"/><path d="M 146,160 h 70 v 52 h -70 z" fill="none" stroke="#4fe3ff" stroke-width="29" stroke-opacity="0.08" stroke-linecap="round" stroke-linejoin="round"/><path d="M 146,160 h 70 v 52 h -70 z" fill="none" stroke="#4fe3ff" stroke-width="19" stroke-opacity="0.16" stroke-linecap="round" stroke-linejoin="round"/><path d="M 146,160 h 70 v 52 h -70 z" fill="none" stroke="#4fe3ff" stroke-width="12" stroke-opacity="0.35" stroke-linecap="round" stroke-linejoin="round"/><path d="M 146,160 h 70 v 52 h -70 z" fill="none" stroke="#4fe3ff" stroke-width="7" stroke-linecap="round" stroke-linejoin="round"/><path d="M 146,160 h 70 v 52 h -70 z" fill="none" stroke="#eafdff" stroke-width="3" stroke-linecap="round" stroke-linejoin="round" opacity="0.9"/><path d="M 246,160 h 70 v 52 h -70 z" fill="none" stroke="#4fe3ff" stroke-width="29" stroke-opacity="0.08" stroke-linecap="round" stroke-linejoin="round"/><path d="M 246,160 h 70 v 52 h -70 z" fill="none" stroke="#4fe3ff" stroke-width="19" stroke-opacity="0.16" stroke-linecap="round" stroke-linejoin="round"/><path d="M 246,160 h 70 v 52 h -70 z" fill="none" stroke="#4fe3ff" stroke-width="12" stroke-opacity="0.35" stroke-linecap="round" stroke-linejoin="round"/><path d="M 246,160 h 70 v 52 h -70 z" fill="none" stroke="#4fe3ff" stroke-width="7" stroke-linecap="round" stroke-linejoin="round"/><path d="M 246,160 h 70 v 52 h -70 z" fill="none" stroke="#eafdff" stroke-width="3" stroke-linecap="round" stroke-linejoin="round" opacity="0.9"/><path d="M 146,248 h 70 v 52 h -70 z" fill="none" stroke="#4fe3ff" stroke-width="29" stroke-opacity="0.08" stroke-linecap="round" stroke-linejoin="round"/><path d="M 146,248 h 70 v 52 h -70 z" fill="none" stroke="#4fe3ff" stroke-width="19" stroke-opacity="0.16" stroke-linecap="round" stroke-linejoin="round"/><path d="M 146,248 h 70 v 52 h -70 z" fill="none" stroke="#4fe3ff" stroke-width="12" stroke-opacity="0.35" stroke-linecap="round" stroke-linejoin="round"/><path d="M 146,248 h 70 v 52 h -70 z" fill="none" stroke="#4fe3ff" stroke-width="7" stroke-linecap="round" stroke-linejoin="round"/><path d="M 146,248 h 70 v 52 h -70 z" fill="none" stroke="#eafdff" stroke-width="3" stroke-linecap="round" stroke-linejoin="round" opacity="0.9"/><path d="M 246,248 h 70 v 52 h -70 z" fill="none" stroke="#4fe3ff" stroke-width="29" stroke-opacity="0.08" stroke-linecap="round" stroke-linejoin="round"/><path d="M 246,248 h 70 v 52 h -70 z" fill="none" stroke="#4fe3ff" stroke-width="19" stroke-opacity="0.16" stroke-linecap="round" stroke-linejoin="round"/><path d="M 246,248 h 70 v 52 h -70 z" fill="none" stroke="#4fe3ff" stroke-width="12" stroke-opacity="0.35" stroke-linecap="round" stroke-linejoin="round"/><path d="M 246,248 h 70 v 52 h -70 z" fill="none" stroke="#4fe3ff" stroke-width="7" stroke-linecap="round" stroke-linejoin="round"/><path d="M 246,248 h 70 v 52 h -70 z" fill="none" stroke="#eafdff" stroke-width="3" stroke-linecap="round" stroke-linejoin="round" opacity="0.9"/><path d="M 146,336 h 70 v 52 h -70 z" fill="none" stroke="#4fe3ff" stroke-width="29" stroke-opacity="0.08" stroke-linecap="round" stroke-linejoin="round"/><path d="M 146,336 h 70 v 52 h -70 z" fill="none" stroke="#4fe3ff" stroke-width="19" stroke-opacity="0.16" stroke-linecap="round" stroke-linejoin="round"/><path d="M 146,336 h 70 v 52 h -70 z" fill="none" stroke="#4fe3ff" stroke-width="12" stroke-opacity="0.35" stroke-linecap="round" stroke-linejoin="round"/><path d="M 146,336 h 70 v 52 h -70 z" fill="none" stroke="#4fe3ff" stroke-width="7" stroke-linecap="round" stroke-linejoin="round"/><path d="M 146,336 h 70 v 52 h -70 z" fill="none" stroke="#eafdff" stroke-width="3" stroke-linecap="round" stroke-linejoin="round" opacity="0.9"/><path d="M 246,336 h 70 v 52 h -70 z" fill="none" stroke="#4fe3ff" stroke-width="29" stroke-opacity="0.08" stroke-linecap="round" stroke-linejoin="round"/><path d="M 246,336 h 70 v 52 h -70 z" fill="none" stroke="#4fe3ff" stroke-width="19" stroke-opacity="0.16" stroke-linecap="round" stroke-linejoin="round"/><path d="M 246,336 h 70 v 52 h -70 z" fill="none" stroke="#4fe3ff" stroke-width="12" stroke-opacity="0.35" stroke-linecap="round" stroke-linejoin="round"/><path d="M 246,336 h 70 v 52 h -70 z" fill="none" stroke="#4fe3ff" stroke-width="7" stroke-linecap="round" stroke-linejoin="round"/><path d="M 246,336 h 70 v 52 h -70 z" fill="none" stroke="#eafdff" stroke-width="3" stroke-linecap="round" stroke-linejoin="round" opacity="0.9"/><path d="M 196,432 L 196,376 h 66 v 56" fill="none" stroke="#4fe3ff" stroke-width="29" stroke-opacity="0.08" stroke-linecap="round" stroke-linejoin="round"/><path d="M 196,432 L 196,376 h 66 v 56" fill="none" stroke="#4fe3ff" stroke-width="19" stroke-opacity="0.16" stroke-linecap="round" stroke-linejoin="round"/><path d="M 196,432 L 196,376 h 66 v 56" fill="none" stroke="#4fe3ff" stroke-width="12" stroke-opacity="0.35" stroke-linecap="round" stroke-linejoin="round"/><path d="M 196,432 L 196,376 h 66 v 56" fill="none" stroke="#4fe3ff" stroke-width="7" stroke-linecap="round" stroke-linejoin="round"/><path d="M 196,432 L 196,376 h 66 v 56" fill="none" stroke="#eafdff" stroke-width="3" stroke-linecap="round" stroke-linejoin="round" opacity="0.9"/><path d="M 60,432 L 452,432" fill="none" stroke="#4fe3ff" stroke-width="32" stroke-opacity="0.08" stroke-linecap="round" stroke-linejoin="round"/><path d="M 60,432 L 452,432" fill="none" stroke="#4fe3ff" stroke-width="22" stroke-opacity="0.16" stroke-linecap="round" stroke-linejoin="round"/><path d="M 60,432 L 452,432" fill="none" stroke="#4fe3ff" stroke-width="15" stroke-opacity="0.35" stroke-linecap="round" stroke-linejoin="round"/><path d="M 60,432 L 452,432" fill="none" stroke="#4fe3ff" stroke-width="10" stroke-linecap="round" stroke-linejoin="round"/><path d="M 60,432 L 452,432" fill="none" stroke="#eafdff" stroke-width="4" stroke-linecap="round" stroke-linejoin="round" opacity="0.9"/><circle cx="398" cy="400" r="63" fill="none" stroke="#4fe3ff" stroke-width="14" stroke-opacity="0.16"/><circle cx="398" cy="400" r="54" fill="rgba(6,30,44,0.72)" stroke="#4fe3ff" stroke-width="8"/><g transform="translate(398,400)" fill="none" stroke-linecap="round" stroke-linejoin="round"><path d="M -16,-11 A 17,17 0 1 1 13,2 L -17,27 L 19,27" stroke="#4fe3ff" stroke-width="12"/><path d="M -16,-11 A 17,17 0 1 1 13,2 L -17,27 L 19,27" stroke="#eafdff" stroke-width="6" opacity="0.9"/></g></svg>