<svg xmlns="http://www.w3.org/2000/svg" width="512" height="512" viewBox="0 0 512 512">
<defs>
  <linearGradient id="metalV" x1="0" y1="0" x2="0" y2="1"><stop offset="0" stop-color="#5a4a8a"/><stop offset="0.45" stop-color="#372a5e"/><stop offset="1" stop-color="#1d1438"/></linearGradient>
  <linearGradient id="metalLite" x1="0" y1="0" x2="0" y2="1"><stop offset="0" stop-color="#9a86d8"/><stop offset="0.5" stop-color="#5a4a8a"/><stop offset="1" stop-color="#2a2050"/></linearGradient>
  <linearGradient id="metalDark" x1="0" y1="0" x2="0" y2="1"><stop offset="0" stop-color="#3a2c66"/><stop offset="1" stop-color="#120c26"/></linearGradient>
  <linearGradient id="sideShade" x1="0" y1="0" x2="1" y2="0">
    <stop offset="0" stop-color="#000" stop-opacity="0"/><stop offset="1" stop-color="#000" stop-opacity="0.45"/>
  </linearGradient>
  <linearGradient id="glass" x1="0" y1="0" x2="0" y2="1"><stop offset="0" stop-color="#3a2451"/><stop offset="0.55" stop-color="#251536"/><stop offset="1" stop-color="#120a1e"/></linearGradient>
  <linearGradient id="glassRoof" x1="0" y1="0" x2="0" y2="1"><stop offset="0" stop-color="#3a2451"/><stop offset="0.55" stop-color="#251536"/><stop offset="1" stop-color="#120a1e"/></linearGradient>
  <radialGradient id="gshadow" cx="0.5" cy="0.5" r="0.5">
    <stop offset="0" stop-color="#000" stop-opacity="0.5"/><stop offset="0.7" stop-color="#000" stop-opacity="0.28"/>
    <stop offset="1" stop-color="#000" stop-opacity="0"/>
  </radialGradient>
  <radialGradient id="halo" cx="0.5" cy="0.5" r="0.5">
    <stop offset="0" stop-color="#ff5fd7" stop-opacity="0.30"/><stop offset="0.55" stop-color="#ff5fd7" stop-opacity="0.12"/>
    <stop offset="1" stop-color="#ff5fd7" stop-opacity="0"/>
  </radialGradient>
  <radialGradient id="badgeG" cx="0.35" cy="0.3" r="0.9"><stop offset="0" stop-color="#ff9ce8"/><stop offset="0.55" stop-color="#f03cbe"/><stop offset="1" stop-color="#8f1a86"/></radialGradient>
  <linearGradient id="badgeRim" x1="0" y1="0" x2="0" y2="1"><stop offset="0" stop-color="#ffd9f6"/><stop offset="1" stop-color="#4a0a45"/></linearGradient>
</defs><ellipse cx="256" cy="450" rx="175" ry="28" fill="url(#gshadow)"/><rect x="84" y="118" width="62" height="228" rx="20" fill="url(#metalV)" stroke="url(#metalLite)" stroke-width="4"/><rect x="98" y="136" width="34" height="150" rx="14" fill="url(#metalDark)"/><rect x="140" y="252" width="310" height="62" rx="18" fill="url(#metalLite)"/><rect x="140" y="252" width="310" height="26" rx="13" fill="#dfe8f0" opacity="0.85"/><rect x="152" y="228" width="112" height="46" rx="18" fill="#eef4f9" stroke="#9fb0c0" stroke-width="3"/><path d="M258,238 h150 a34,34 0 0 1 34,34 v42 h-196 v-62 a14,14 0 0 1 12,-14 z" fill="url(#glass)" stroke="#54687c" stroke-width="3"/><line x1="300" y1="244" x2="292" y2="314" stroke="#12081f" stroke-width="5" opacity="0.35"/><line x1="352" y1="240" x2="346" y2="314" stroke="#12081f" stroke-width="5" opacity="0.35"/><rect x="84" y="314" width="374" height="30" rx="12" fill="url(#metalV)" stroke="url(#metalLite)" stroke-width="3"/><rect x="110" y="344" width="30" height="72" rx="9" fill="url(#metalDark)"/><rect x="412" y="344" width="30" height="72" rx="9" fill="url(#metalDark)"/><rect x="102" y="408" width="46" height="14" rx="7" fill="url(#metalLite)"/><rect x="404" y="408" width="46" height="14" rx="7" fill="url(#metalLite)"/><rect x="440" y="226" width="28" height="120" rx="12" fill="url(#metalV)" stroke="url(#metalLite)" stroke-width="3"/><circle cx="454" cy="218" r="13" fill="url(#metalLite)"/></svg>