<svg xmlns="http://www.w3.org/2000/svg" width="512" height="512" viewBox="0 0 512 512">
<defs>
  <linearGradient id="metalV" x1="0" y1="0" x2="0" y2="1"><stop offset="0" stop-color="rgba(80,225,255,0.30)"/><stop offset="0.5" stop-color="rgba(40,180,220,0.18)"/><stop offset="1" stop-color="rgba(20,120,160,0.12)"/></linearGradient>
  <linearGradient id="metalLite" x1="0" y1="0" x2="0" y2="1"><stop offset="0" stop-color="rgba(160,245,255,0.55)"/><stop offset="1" stop-color="rgba(60,190,230,0.22)"/></linearGradient>
  <linearGradient id="metalDark" x1="0" y1="0" x2="0" y2="1"><stop offset="0" stop-color="rgba(20,90,120,0.45)"/><stop offset="1" stop-color="rgba(8,40,60,0.55)"/></linearGradient>
  <linearGradient id="sideShade" x1="0" y1="0" x2="1" y2="0">
    <stop offset="0" stop-color="#000" stop-opacity="0"/><stop offset="1" stop-color="#000" stop-opacity="0.22"/>
  </linearGradient>
  <linearGradient id="glass" x1="0" y1="0" x2="0" y2="1"><stop offset="0" stop-color="#e8fdff"/><stop offset="0.4" stop-color="#7deaff"/><stop offset="1" stop-color="#12a7cf"/></linearGradient>
  <linearGradient id="glassRoof" x1="0" y1="0" x2="0" y2="1"><stop offset="0" stop-color="#e8fdff"/><stop offset="0.4" stop-color="#7deaff"/><stop offset="1" stop-color="#12a7cf"/></linearGradient>
  <radialGradient id="gshadow" cx="0.5" cy="0.5" r="0.5">
    <stop offset="0" stop-color="#000" stop-opacity="0.5"/><stop offset="0.7" stop-color="#000" stop-opacity="0.28"/>
    <stop offset="1" stop-color="#000" stop-opacity="0"/>
  </radialGradient>
  <radialGradient id="halo" cx="0.5" cy="0.5" r="0.5">
    <stop offset="0" stop-color="#4fe3ff" stop-opacity="0.30"/><stop offset="0.55" stop-color="#4fe3ff" stop-opacity="0.12"/>
    <stop offset="1" stop-color="#4fe3ff" stop-opacity="0"/>
  </radialGradient>
  <radialGradient id="badgeG" cx="0.35" cy="0.3" r="0.9"><stop offset="0" stop-color="rgba(120,240,255,0.75)"/><stop offset="0.55" stop-color="rgba(40,190,230,0.65)"/><stop offset="1" stop-color="rgba(10,120,170,0.6)"/></radialGradient>
  <linearGradient id="badgeRim" x1="0" y1="0" x2="0" y2="1"><stop offset="0" stop-color="#bff6ff"/><stop offset="1" stop-color="#065a78"/></linearGradient>
</defs><circle cx="256" cy="250" r="240" fill="url(#halo)"/><ellipse cx="256" cy="452" rx="175" ry="28" fill="url(#gshadow)"/><rect x="344" y="96" width="40" height="120" rx="6" fill="url(#metalDark)"/><rect x="338" y="88" width="52" height="18" rx="6" fill="url(#metalLite)"/><polygon points="256,54 62,244 450,244" fill="none" stroke="#4fe3ff" stroke-width="30" stroke-opacity="0.08" stroke-linejoin="round" stroke-linecap="round"/><polygon points="256,54 62,244 450,244" fill="none" stroke="#4fe3ff" stroke-width="18" stroke-opacity="0.15" stroke-linejoin="round" stroke-linecap="round"/><polygon points="256,54 62,244 450,244" fill="none" stroke="#4fe3ff" stroke-width="9" stroke-opacity="0.3" stroke-linejoin="round" stroke-linecap="round"/><polygon points="256,54 62,244 450,244" fill="none" stroke="#4fe3ff" stroke-width="3.5" stroke-opacity="0.75" stroke-linejoin="round" stroke-linecap="round"/><polygon points="256,54 62,244 450,244" fill="url(#glassRoof)" stroke="url(#metalLite)" stroke-width="15" stroke-linejoin="round"/><line x1="256" y1="60" x2="168" y2="238" stroke="rgba(10,60,80,0.7)" stroke-width="7" opacity="0.65"/><line x1="256" y1="60" x2="344" y2="238" stroke="rgba(10,60,80,0.7)" stroke-width="7" opacity="0.65"/><polygon points="256,62 96,232 148,232 268,74" fill="#ffffff" opacity="0.14"/><rect x="52" y="234" width="408" height="22" rx="10" fill="url(#metalLite)"/><rect x="106" y="256" width="300" height="172" rx="10" fill="none" stroke="#4fe3ff" stroke-width="30" stroke-opacity="0.08" stroke-linejoin="round" stroke-linecap="round"/><rect x="106" y="256" width="300" height="172" rx="10" fill="none" stroke="#4fe3ff" stroke-width="18" stroke-opacity="0.15" stroke-linejoin="round" stroke-linecap="round"/><rect x="106" y="256" width="300" height="172" rx="10" fill="none" stroke="#4fe3ff" stroke-width="9" stroke-opacity="0.3" stroke-linejoin="round" stroke-linecap="round"/><rect x="106" y="256" width="300" height="172" rx="10" fill="none" stroke="#4fe3ff" stroke-width="3.5" stroke-opacity="0.75" stroke-linejoin="round" stroke-linecap="round"/><rect x="106" y="256" width="300" height="172" rx="10" fill="url(#metalV)"/><rect x="356" y="256" width="50" height="172" rx="10" fill="url(#sideShade)"/><polygon points="120,256 180,256 150,428 106,428" fill="#ffffff" opacity="0.06"/><rect x="146" y="296" width="76" height="132" rx="8" fill="url(#metalDark)"/><rect x="153" y="303" width="62" height="125" rx="6" fill="url(#glass)"/><circle cx="205" cy="368" r="6" fill="#7deaff"/><rect x="268" y="288" width="104" height="86" rx="10" fill="url(#metalLite)"/><rect x="276" y="296" width="42" height="32" rx="5" fill="url(#glass)"/><rect x="276" y="334" width="42" height="32" rx="5" fill="url(#glass)"/><rect x="322" y="296" width="42" height="32" rx="5" fill="url(#glass)"/><rect x="322" y="334" width="42" height="32" rx="5" fill="url(#glass)"/><rect x="96" y="424" width="320" height="22" rx="10" fill="url(#metalDark)"/><rect x="106" y="440" width="300" height="5" rx="2.5" fill="#7deaff" opacity="0.85"/><g><line x1="40" y1="60" x2="472" y2="60" stroke="#aef4ff" stroke-width="3" opacity="0.10"/><line x1="40" y1="76" x2="472" y2="76" stroke="#aef4ff" stroke-width="3" opacity="0.10"/><line x1="40" y1="92" x2="472" y2="92" stroke="#aef4ff" stroke-width="3" opacity="0.10"/><line x1="40" y1="108" x2="472" y2="108" stroke="#aef4ff" stroke-width="3" opacity="0.10"/><line x1="40" y1="124" x2="472" y2="124" stroke="#aef4ff" stroke-width="3" opacity="0.10"/><line x1="40" y1="140" x2="472" y2="140" stroke="#aef4ff" stroke-width="3" opacity="0.10"/><line x1="40" y1="156" x2="472" y2="156" stroke="#aef4ff" stroke-width="3" opacity="0.10"/><line x1="40" y1="172" x2="472" y2="172" stroke="#aef4ff" stroke-width="3" opacity="0.10"/><line x1="40" y1="188" x2="472" y2="188" stroke="#aef4ff" stroke-width="3" opacity="0.10"/><line x1="40" y1="204" x2="472" y2="204" stroke="#aef4ff" stroke-width="3" opacity="0.10"/><line x1="40" y1="220" x2="472" y2="220" stroke="#aef4ff" stroke-width="3" opacity="0.10"/><line x1="40" y1="236" x2="472" y2="236" stroke="#aef4ff" stroke-width="3" opacity="0.10"/><line x1="40" y1="252" x2="472" y2="252" stroke="#aef4ff" stroke-width="3" opacity="0.10"/><line x1="40" y1="268" x2="472" y2="268" stroke="#aef4ff" stroke-width="3" opacity="0.10"/><line x1="40" y1="284" x2="472" y2="284" stroke="#aef4ff" stroke-width="3" opacity="0.10"/><line x1="40" y1="300" x2="472" y2="300" stroke="#aef4ff" stroke-width="3" opacity="0.10"/><line x1="40" y1="316" x2="472" y2="316" stroke="#aef4ff" stroke-width="3" opacity="0.10"/><line x1="40" y1="332" x2="472" y2="332" stroke="#aef4ff" stroke-width="3" opacity="0.10"/><line x1="40" y1="348" x2="472" y2="348" stroke="#aef4ff" stroke-width="3" opacity="0.10"/><line x1="40" y1="364" x2="472" y2="364" stroke="#aef4ff" stroke-width="3" opacity="0.10"/><line x1="40" y1="380" x2="472" y2="380" stroke="#aef4ff" stroke-width="3" opacity="0.10"/><line x1="40" y1="396" x2="472" y2="396" stroke="#aef4ff" stroke-width="3" opacity="0.10"/><line x1="40" y1="412" x2="472" y2="412" stroke="#aef4ff" stroke-width="3" opacity="0.10"/><line x1="40" y1="428" x2="472" y2="428" stroke="#aef4ff" stroke-width="3" opacity="0.10"/><line x1="40" y1="444" x2="472" y2="444" stroke="#aef4ff" stroke-width="3" opacity="0.10"/></g></svg>