<svg xmlns="http://www.w3.org/2000/svg" width="512" height="512" viewBox="0 0 512 512">
<defs>
  <linearGradient id="metalV" x1="0" y1="0" x2="0" y2="1">
    <stop offset="0" stop-color="#8ea1b6"/><stop offset="0.45" stop-color="#46536a"/><stop offset="1" stop-color="#232a37"/>
  </linearGradient>
  <linearGradient id="metalLite" x1="0" y1="0" x2="0" y2="1">
    <stop offset="0" stop-color="#b9c7d6"/><stop offset="0.5" stop-color="#77879b"/><stop offset="1" stop-color="#3c4654"/>
  </linearGradient>
  <linearGradient id="metalDark" x1="0" y1="0" x2="0" y2="1">
    <stop offset="0" stop-color="#4a5666"/><stop offset="1" stop-color="#161b23"/>
  </linearGradient>
  <linearGradient id="sideShade" x1="0" y1="0" x2="1" y2="0">
    <stop offset="0" stop-color="#000000" stop-opacity="0"/><stop offset="1" stop-color="#000000" stop-opacity="0.42"/>
  </linearGradient>
  <linearGradient id="glass" x1="0" y1="0" x2="0" y2="1">
    <stop offset="0" stop-color="#e7fdff"/><stop offset="0.35" stop-color="#7deaff"/><stop offset="1" stop-color="#12a7cf"/>
  </linearGradient>
  <linearGradient id="glassRoof" x1="0" y1="0" x2="0" y2="1">
    <stop offset="0" stop-color="#f2feff"/><stop offset="0.4" stop-color="#8ceeff"/><stop offset="1" stop-color="#1fb9de"/>
  </linearGradient>
  <radialGradient id="gshadow" cx="0.5" cy="0.5" r="0.5">
    <stop offset="0" stop-color="#000" stop-opacity="0.5"/><stop offset="0.7" stop-color="#000" stop-opacity="0.28"/>
    <stop offset="1" stop-color="#000" stop-opacity="0"/>
  </radialGradient>
  <radialGradient id="halo" cx="0.5" cy="0.5" r="0.5">
    <stop offset="0" stop-color="#4fe3ff" stop-opacity="0.30"/><stop offset="0.55" stop-color="#4fe3ff" stop-opacity="0.12"/>
    <stop offset="1" stop-color="#4fe3ff" stop-opacity="0"/>
  </radialGradient>
  <radialGradient id="badgeG" cx="0.35" cy="0.3" r="0.9">
    <stop offset="0" stop-color="#5df5e6"/><stop offset="0.55" stop-color="#14cfc0"/><stop offset="1" stop-color="#079b90"/>
  </radialGradient>
  <linearGradient id="badgeRim" x1="0" y1="0" x2="0" y2="1">
    <stop offset="0" stop-color="#bffff7"/><stop offset="1" stop-color="#04564f"/>
  </linearGradient>
</defs><circle cx="256" cy="280" r="230" fill="url(#halo)"/><ellipse cx="256" cy="450" rx="175" ry="28" fill="url(#gshadow)"/><path d="M96,130 h44 a22,22 0 0 1 22,22 v96 h236 a30,30 0 0 1 30,30 v56 h-352 z"  fill="none" stroke="#4fe3ff" stroke-width="30" stroke-opacity="0.08" stroke-linejoin="round" stroke-linecap="round"/><path d="M96,130 h44 a22,22 0 0 1 22,22 v96 h236 a30,30 0 0 1 30,30 v56 h-352 z"  fill="none" stroke="#4fe3ff" stroke-width="18" stroke-opacity="0.15" stroke-linejoin="round" stroke-linecap="round"/><path d="M96,130 h44 a22,22 0 0 1 22,22 v96 h236 a30,30 0 0 1 30,30 v56 h-352 z"  fill="none" stroke="#4fe3ff" stroke-width="9" stroke-opacity="0.3" stroke-linejoin="round" stroke-linecap="round"/><path d="M96,130 h44 a22,22 0 0 1 22,22 v96 h236 a30,30 0 0 1 30,30 v56 h-352 z"  fill="none" stroke="#4fe3ff" stroke-width="3.5" stroke-opacity="0.75" stroke-linejoin="round" stroke-linecap="round"/><rect x="84" y="118" width="62" height="228" rx="20" fill="url(#metalV)" stroke="url(#metalLite)" stroke-width="4"/><rect x="98" y="136" width="34" height="150" rx="14" fill="url(#metalDark)"/><rect x="140" y="252" width="310" height="62" rx="18" fill="url(#metalLite)"/><rect x="140" y="252" width="310" height="26" rx="13" fill="#dfe8f0" opacity="0.85"/><rect x="152" y="228" width="112" height="46" rx="18" fill="#eef4f9" stroke="#9fb0c0" stroke-width="3"/><path d="M258,238 h150 a34,34 0 0 1 34,34 v42 h-196 v-62 a14,14 0 0 1 12,-14 z" fill="url(#glass)" stroke="#4fe3ff" stroke-width="4"/><line x1="300" y1="244" x2="292" y2="314" stroke="#0b1620" stroke-width="5" opacity="0.35"/><line x1="352" y1="240" x2="346" y2="314" stroke="#0b1620" stroke-width="5" opacity="0.35"/><rect x="84" y="314" width="374" height="30" rx="12" fill="url(#metalV)" stroke="url(#metalLite)" stroke-width="3"/><rect x="96" y="338" width="350" height="6" rx="3" fill="#4fe3ff" opacity="0.9"/><rect x="110" y="344" width="30" height="72" rx="9" fill="url(#metalDark)"/><rect x="412" y="344" width="30" height="72" rx="9" fill="url(#metalDark)"/><rect x="102" y="408" width="46" height="14" rx="7" fill="url(#metalLite)"/><rect x="404" y="408" width="46" height="14" rx="7" fill="url(#metalLite)"/><rect x="440" y="226" width="28" height="120" rx="12" fill="url(#metalV)" stroke="url(#metalLite)" stroke-width="3"/><circle cx="454" cy="218" r="13" fill="url(#glass)"/></svg>